<svg width="331" height="292" xmlns="http://www.w3.org/2000/svg" xmlns:xlink="http://www.w3.org/1999/xlink" overflow="hidden"><defs><clipPath id="clip0"><rect x="840" y="217" width="331" height="292"/></clipPath><clipPath id="clip1"><path d="M909.492 217.8 1170.68 308.744 1101.24 508.181 840.051 417.237Z" fill-rule="evenodd" clip-rule="evenodd"/></clipPath><clipPath id="clip2"><path d="M909.492 217.8 1170.68 308.744 1101.24 508.181 840.051 417.237Z" fill-rule="evenodd" clip-rule="evenodd"/></clipPath><clipPath id="clip3"><path d="M909.492 217.8 1170.68 308.744 1079.74 569.934 818.549 478.99Z" fill-rule="evenodd" clip-rule="evenodd"/></clipPath></defs><g clip-path="url(#clip0)" transform="translate(-840 -217)"><g clip-path="url(#clip1)"><g clip-path="url(#clip2)"><g clip-path="url(#clip3)"><path d="M115.238 86.4281C107.286 86.4376 100.842 92.8811 100.833 100.833L100.833 135.404C100.849 136.613 101.018 137.816 101.337 138.982 103.622 130.929 110.969 125.367 119.34 125.352L129.642 125.352 129.642 100.833C129.633 92.8811 123.189 86.4376 115.238 86.4281Z" stroke="#F6C6AD" stroke-width="1.00207" fill="#F6C6AD" transform="matrix(0.944395 0.328829 -0.328827 0.94439 909.492 217.8)"/><path d="M80.6058 144.047C88.5574 144.037 95.0009 137.594 95.0104 129.642L95.0104 112.702C95.0104 104.747 88.5612 98.2976 80.6058 98.2976 72.6503 98.2976 66.2011 104.747 66.2011 112.702L66.2011 129.642C66.2106 137.594 72.6541 144.037 80.6058 144.047Z" stroke="#F6C6AD" stroke-width="1.00207" fill="#F6C6AD" transform="matrix(0.944395 0.328829 -0.328827 0.94439 909.492 217.8)"/><path d="M119.334 157.043 155.346 157.043 155.346 162.805 152.793 162.954C140.147 164.37 131.041 175.766 132.451 188.413L126.721 189.053C125.853 181.457 128.061 173.83 132.852 167.872 134.385 165.968 136.154 164.265 138.115 162.805L119.34 162.805C111.408 162.793 104.342 157.789 101.697 150.31 99.2714 148.108 97.4175 145.35 96.2953 142.272 89.5689 150.683 77.4045 152.287 68.7277 145.908 71.6086 168.858 78.3356 195.881 94.8462 204.495L94.8462 257.876 174.406 257.876 174.406 209.012C176.223 207.971 177.982 206.832 179.675 205.601 193.561 195.189 201.648 178.779 201.447 161.425L201.447 161.425C201.445 144.683 187.872 131.113 171.131 131.114 171.13 131.114 171.129 131.114 171.128 131.114L119.34 131.114C112.18 131.114 106.376 136.919 106.376 144.079L106.376 144.079C106.388 149.759 110.11 154.764 115.546 156.412 115.796 156.495 116.044 156.582 116.303 156.648 116.563 156.714 116.88 156.775 117.188 156.827 117.895 156.963 118.614 157.036 119.334 157.043Z" stroke="#F6C6AD" stroke-width="1.00207" fill="#F6C6AD" transform="matrix(0.944395 0.328829 -0.328827 0.94439 909.492 217.8)"/><path d="M132.633 90.6775C133.149 91.57 133.602 92.498 133.987 93.4547L133.987 93.4547C134.538 94.8725 134.932 96.3469 135.159 97.8511L135.254 98.4849C135.351 99.2639 135.401 100.048 135.404 100.833L135.404 125.352 171.128 125.352C180.55 125.351 189.597 129.049 196.319 135.652L196.319 119.712C196.319 114.383 196.756 109.063 197.624 103.806L208.151 40.1199C209.371 32.0317 203.803 24.4855 195.715 23.2652 187.783 22.0684 180.34 27.404 178.926 35.3001L169.307 93.4951C168.862 96.189 166.532 98.1651 163.801 98.1651L163.801 98.1651C161.093 98.1671 158.775 96.223 158.305 93.5556L147.173 30.1144C146.607 26.4723 144.77 23.1482 141.987 20.7312 139.335 18.5073 135.985 17.2875 132.523 17.2856 131.006 17.2858 129.497 17.516 128.049 17.9684 120.856 20.4321 116.577 27.8176 118.018 35.2828L126.603 84.1868C127.36 84.7128 128.08 85.2902 128.758 85.9153 128.859 86.0075 128.962 86.0968 129.046 86.189 129.731 86.8315 130.37 87.5206 130.959 88.2518L131.074 88.3987C131.651 89.1175 132.172 89.8795 132.633 90.6775Z" stroke="#F6C6AD" stroke-width="1.00207" fill="#F6C6AD" transform="matrix(0.944395 0.328829 -0.328827 0.94439 909.492 217.8)"/></g></g></g></g></svg>